<svg width="620" height="140" viewBox="0 0 620 140" fill="none" xmlns="http://www.w3.org/2000/svg">
  <defs>
    <linearGradient id="bg" x1="0" y1="0" x2="620" y2="140" gradientUnits="userSpaceOnUse">
      <stop stop-color="#0b1738"/>
      <stop offset="1" stop-color="#1f3b8a"/>
    </linearGradient>
    <linearGradient id="accent" x1="0" y1="0" x2="0" y2="140" gradientUnits="userSpaceOnUse">
      <stop stop-color="#f9d976"/>
      <stop offset="1" stop-color="#f39c12"/>
    </linearGradient>
    <linearGradient id="book" x1="40" y1="20" x2="160" y2="120" gradientUnits="userSpaceOnUse">
      <stop stop-color="#dce9ff"/>
      <stop offset="1" stop-color="#8eb7ff"/>
    </linearGradient>
  </defs>
  <rect width="620" height="140" rx="8" fill="url(#bg)"/>
  <rect x="16" y="16" width="120" height="108" rx="12" fill="#102a72" stroke="#5d8bff" stroke-width="2"/>
  <path d="M38 36C38 30.477 42.477 26 48 26H98C103.523 26 108 30.477 108 36V110C108 104.477 103.523 100 98 100H48C42.477 100 38 104.477 38 110V36Z" fill="url(#book)"/>
  <path d="M108 36C108 30.477 112.477 26 118 26H168C173.523 26 178 30.477 178 36V110C178 104.477 173.523 100 168 100H118C112.477 100 108 104.477 108 110V36Z" fill="#eaf2ff"/>
  <path d="M103 36H113V110H103V36Z" fill="#1c3c8a"/>
  <path d="M54 42H94M54 52H94M54 62H94" stroke="#2d5bd1" stroke-width="3" stroke-linecap="round"/>
  <path d="M122 42H162M122 52H162M122 62H162" stroke="#2d5bd1" stroke-width="3" stroke-linecap="round"/>
  <text x="210" y="68" font-size="42" font-family="Segoe UI, Arial, sans-serif" font-weight="700" fill="#ffffff">Book Reader</text>
  <text x="210" y="110" font-size="24" font-family="Segoe UI, Arial, sans-serif" font-weight="700" fill="url(#accent)">EPUB / ZIP / RAR</text>
</svg>
