<svg xmlns="http://www.w3.org/2000/svg">
  <symbol id="library" viewBox="0 0 24 24"><path d="M4 4h4v16H4z M10 4h4v16h-4z M16 5l4-1 3 15-4 1z" fill="none" stroke="currentColor" stroke-width="1.7" stroke-linecap="round" stroke-linejoin="round"/></symbol>
  <symbol id="contents" viewBox="0 0 24 24"><path d="M8 6h12 M8 12h12 M8 18h12 M4 6h.01 M4 12h.01 M4 18h.01" fill="none" stroke="currentColor" stroke-width="1.7" stroke-linecap="round" stroke-linejoin="round"/></symbol>
  <symbol id="bookmark" viewBox="0 0 24 24"><path d="M6 3h12v18l-6-4-6 4z" fill="none" stroke="currentColor" stroke-width="1.7" stroke-linecap="round" stroke-linejoin="round"/></symbol>
  <symbol id="search" viewBox="0 0 24 24"><path d="M21 21l-5-5 M18 10a8 8 0 1 1-16 0 8 8 0 0 1 16 0" fill="none" stroke="currentColor" stroke-width="1.7" stroke-linecap="round" stroke-linejoin="round"/></symbol>
  <symbol id="settings" viewBox="0 0 24 24"><path d="M4 6h16 M4 12h16 M4 18h16 M9 3v6 M15 9v6 M9 15v6" fill="none" stroke="currentColor" stroke-width="1.7" stroke-linecap="round" stroke-linejoin="round"/></symbol>
  <symbol id="open" viewBox="0 0 24 24"><path d="M3 7V4h6l2 3h10v13H3z M3 11h18" fill="none" stroke="currentColor" stroke-width="1.7" stroke-linecap="round" stroke-linejoin="round"/></symbol>
  <symbol id="history" viewBox="0 0 24 24"><path d="M3 11a9 9 0 1 1 3 8 M3 5v6h6 M12 7v5l3 2" fill="none" stroke="currentColor" stroke-width="1.7" stroke-linecap="round" stroke-linejoin="round"/></symbol>
  <symbol id="web" viewBox="0 0 24 24"><path d="M21 12a9 9 0 1 1-18 0 9 9 0 0 1 18 0 M3 12h18 M12 3c5 5 5 13 0 18-5-5-5-13 0-18" fill="none" stroke="currentColor" stroke-width="1.7" stroke-linecap="round" stroke-linejoin="round"/></symbol>
  <symbol id="share" viewBox="0 0 24 24"><path d="M8 12l8-6 M8 12l8 6 M8 12a3 3 0 1 1-6 0 3 3 0 0 1 6 0 M22 5a3 3 0 1 1-6 0 3 3 0 0 1 6 0 M22 19a3 3 0 1 1-6 0 3 3 0 0 1 6 0" fill="none" stroke="currentColor" stroke-width="1.7" stroke-linecap="round" stroke-linejoin="round"/></symbol>
  <symbol id="zoom-in" viewBox="0 0 24 24"><path d="M21 21l-5-5 M18 10a8 8 0 1 1-16 0 8 8 0 0 1 16 0 M6 10h8 M10 6v8" fill="none" stroke="currentColor" stroke-width="1.7" stroke-linecap="round" stroke-linejoin="round"/></symbol>
  <symbol id="zoom-out" viewBox="0 0 24 24"><path d="M21 21l-5-5 M18 10a8 8 0 1 1-16 0 8 8 0 0 1 16 0 M6 10h8" fill="none" stroke="currentColor" stroke-width="1.7" stroke-linecap="round" stroke-linejoin="round"/></symbol>
</svg>
